<?xml version="1.0" encoding="utf-8"?>
<!-- Generator: Adobe Illustrator 15.1.0, SVG Export Plug-In  -->
<!DOCTYPE svg PUBLIC "-//W3C//DTD SVG 1.1//EN" "http://www.w3.org/Graphics/SVG/1.1/DTD/svg11.dtd" [
	<!ENTITY ns_flows "http://ns.adobe.com/Flows/1.0/">
]>
<svg version="1.1"
	 xmlns="http://www.w3.org/2000/svg" xmlns:xlink="http://www.w3.org/1999/xlink" xmlns:a="http://ns.adobe.com/AdobeSVGViewerExtensions/3.0/"
	 x="0px" y="0px" width="480px" height="370px" viewBox="0 0 480 370" enable-background="new 0 0 480 370" xml:space="preserve">
<defs>
</defs>
<path fill="#2A4E5E" d="M472,40c-4.418,0-8,3.582-8,8v288h-43.44c-51.481,0.005-102.796,5.851-152.96,17.424
	c-6.441,1.475-13.125-1.18-16.8-6.672c28.563-17.484,61.399-26.741,94.888-26.752H440c4.418,0,8-3.582,8-8v-56c0-4.418-3.582-8-8-8
	s-8,3.582-8,8v48h-86.313c-34.237-0.032-67.896,8.821-97.688,25.696V112c0-4.418-3.582-8-8-8c-4.418,0-8,3.582-8,8v217.688
	c-29.791-16.873-63.451-25.724-97.688-25.688H48V16h123.2c33.585,0.022,60.8,27.254,60.8,60.84c0,4.418,3.582,8,8,8
	c4.418,0,8-3.582,8-8c0-33.585,27.215-60.818,60.8-60.84H432v208c0,4.418,3.582,8,8,8s8-3.582,8-8V8c0-4.418-3.582-8-8-8H308.8
	c-29.167,0.021-55.812,16.541-68.8,42.656C227.011,16.541,200.367,0.021,171.2,0H40c-4.418,0-8,3.582-8,8v304c0,4.418,3.582,8,8,8
	h94.312c33.495,0.008,66.336,9.265,94.904,26.752c-3.687,5.478-10.359,8.128-16.8,6.672C162.247,341.848,110.927,336.003,59.44,336
	H16V48c0-4.418-3.582-8-8-8s-8,3.582-8,8v296c0,4.418,3.582,8,8,8h51.44c50.27,0.008,100.376,5.717,149.36,17.016
	c11.476,2.649,23.477-1.252,31.2-10.144c7.721,8.895,19.725,12.797,31.2,10.144C320.184,357.719,370.29,352.01,420.56,352H472
	c4.418,0,8-3.582,8-8V48C480,43.582,476.418,40,472,40z"/>
<path fill="#2A4E5E" d="M213.784,68.904C201.178,60.485,186.358,55.995,171.2,56H80c-4.418,0-8,3.582-8,8s3.582,8,8,8h91.2
	c12.012-0.014,23.757,3.542,33.744,10.216c3.676,2.452,8.644,1.46,11.096-2.216s1.46-8.644-2.216-11.096H213.784z"/>
<path fill="#CE0040" d="M400,56h-91.2c-15.172-0.012-30.006,4.479-42.624,12.904c-3.676,2.452-4.668,7.42-2.216,11.096
	s7.42,4.668,11.097,2.216C285.044,75.544,296.789,71.989,308.8,72H400c4.418,0,8-3.582,8-8S404.418,56,400,56z"/>
<path fill="#2A4E5E" d="M213.784,108.904C201.178,100.485,186.358,95.995,171.2,96H80c-4.418,0-8,3.582-8,8s3.582,8,8,8h91.2
	c12.012-0.014,23.757,3.542,33.744,10.216c3.676,2.452,8.644,1.46,11.096-2.216s1.46-8.644-2.216-11.096H213.784z"/>
<path fill="#CE0040" d="M400,96h-91.2c-15.172-0.012-30.006,4.479-42.624,12.904c-3.676,2.452-4.668,7.42-2.216,11.096
	s7.42,4.668,11.097,2.216l0,0c9.987-6.671,21.732-10.227,33.743-10.216H400c4.418,0,8-3.582,8-8S404.418,96,400,96z"/>
<path fill="#2A4E5E" d="M213.784,148.904c-12.606-8.418-27.426-12.909-42.584-12.904H80c-4.418,0-8,3.582-8,8s3.582,8,8,8h91.2
	c12.012-0.014,23.757,3.542,33.744,10.216c3.676,2.452,8.644,1.46,11.096-2.216s1.46-8.644-2.216-11.096l0,0H213.784z"/>
<path fill="#2A4E5E" d="M400,136h-91.2c-15.172-0.012-30.006,4.479-42.624,12.904c-3.676,2.452-4.668,7.42-2.216,11.096
	s7.42,4.668,11.097,2.216l0,0c9.987-6.671,21.732-10.227,33.743-10.216H400c4.418,0,8-3.582,8-8S404.418,136,400,136z"/>
<path fill="#2A4E5E" d="M213.784,188.904c-12.606-8.419-27.426-12.909-42.584-12.904H80c-4.418,0-8,3.582-8,8s3.582,8,8,8h91.2
	c12.012-0.014,23.757,3.542,33.744,10.216c3.676,2.452,8.644,1.46,11.096-2.216s1.46-8.645-2.216-11.096H213.784z"/>
<path fill="#2A4E5E" d="M400,176h-91.2c-15.172-0.012-30.006,4.479-42.624,12.904c-3.676,2.451-4.668,7.42-2.216,11.096
	s7.42,4.668,11.097,2.216c9.987-6.671,21.732-10.228,33.743-10.216H400c4.418,0,8-3.582,8-8S404.418,176,400,176z"/>
<path fill="#CE0040" d="M213.784,228.904c-12.606-8.419-27.426-12.909-42.584-12.904H80c-4.418,0-8,3.582-8,8s3.582,8,8,8h91.2
	c12.012-0.014,23.757,3.542,33.744,10.216c3.676,2.452,8.644,1.46,11.096-2.216s1.46-8.644-2.216-11.096l0,0H213.784z"/>
<path fill="#2A4E5E" d="M400,216h-91.2c-15.172-0.012-30.006,4.479-42.624,12.904c-3.676,2.452-4.668,7.42-2.216,11.096
	s7.42,4.668,11.097,2.216c9.987-6.672,21.732-10.228,33.743-10.216H400c4.418,0,8-3.582,8-8S404.418,216,400,216z"/>
<path fill="#2A4E5E" d="M171.2,256H80c-4.418,0-8,3.582-8,8s3.582,8,8,8h91.2c12.012-0.014,23.757,3.542,33.744,10.216
	c3.676,2.452,8.644,1.46,11.096-2.216s1.46-8.644-2.216-11.096l0,0C201.207,260.478,186.372,255.987,171.2,256z"/>
<path fill="#2A4E5E" d="M400,256h-91.2c-15.172-0.012-30.006,4.479-42.624,12.904c-3.676,2.452-4.668,7.42-2.216,11.096
	s7.42,4.668,11.097,2.216l0,0c9.987-6.672,21.732-10.228,33.743-10.216H400c4.418,0,8-3.582,8-8S404.418,256,400,256z"/>
</svg>
